<?xml version="1.0" encoding="utf-8"?>
<!-- Generator: Adobe Illustrator 16.0.0, SVG Export Plug-In . SVG Version: 6.00 Build 0)  -->
<!DOCTYPE svg PUBLIC "-//W3C//DTD SVG 1.1//EN" "http://www.w3.org/Graphics/SVG/1.1/DTD/svg11.dtd">
<svg version="1.1" xmlns="http://www.w3.org/2000/svg" xmlns:xlink="http://www.w3.org/1999/xlink" x="0px" y="0px" width="960px"
	 height="560px" viewBox="0 0 960 560" enable-background="new 0 0 960 560" xml:space="preserve">
<g id="leaves">
	<path fill="none" stroke="#E90016" stroke-width="4" stroke-miterlimit="10" d="M465.476,439.108
		c-3.097-3.507-13.058-4.099-17.38-2.233c-4.323,1.864-9.078,12.919-10.25,26.202c-1.173,13.286,2.811,54.917,6.815,64.153
		c0,0,15.089-31.774,20.245-48.448C470.063,462.108,468.913,443,465.476,439.108z"/>
	<path fill="none" stroke="#E90016" stroke-width="4" stroke-miterlimit="10" d="M497.855,437.076
		c-4.097-2.403-13.748,0.014-17.238,3.076s-4.363,14.981-1.1,27.943c3.264,12.965,20.761,51.301,27.607,58.873
		c0,0,3.857-34.681,3.26-52.054C509.787,457.543,502.4,439.743,497.855,437.076z"/>
	<path fill="none" stroke="#E90016" stroke-width="4" stroke-miterlimit="10" d="M432.18,447.743
		c-0.932-3.35-7.543-6.811-11.129-6.862c-3.587-0.052-10.576,6.048-15.869,14.771c-5.294,8.723-16.649,38.412-17.033,45.957
		c0,0,21.062-17.097,30.226-26.914C427.538,464.878,433.213,451.458,432.18,447.743z"/>
	<path fill="none" stroke="#E90016" stroke-width="4" stroke-miterlimit="10" d="M513.51,447.047
		c0.932-3.35,7.542-6.811,11.127-6.862c3.588-0.053,10.576,6.047,15.869,14.771c5.295,8.724,16.65,38.413,17.033,45.959
		c0,0-21.061-17.098-30.225-26.915C518.15,464.181,512.475,450.762,513.51,447.047z"/>
</g>
<g id="petals">
	<path fill="none" stroke="#F8DBEB" stroke-width="7.8456" stroke-miterlimit="10" d="M452.711,422.799
		c7.403,3.165,14.196-2.556,14.656-14.024c0.46-11.47,0-60.219,0-71.753c0-16.966-13.831-22.177-25.49-18.775
		c-14.484,4.224-26.555,17.927-20.52,50.036C424.879,387.018,433.366,414.529,452.711,422.799z"/>
	<path fill="none" stroke="#F8DBEB" stroke-width="7.8456" stroke-miterlimit="10" d="M495.301,424.316
		c-7.402,3.166-14.195-2.555-14.656-14.024c-0.46-11.47,0-60.219,0-71.753c0-16.966,13.832-22.177,25.49-18.776
		c14.484,4.225,26.555,17.928,20.52,50.037C523.133,388.534,514.646,416.046,495.301,424.316z"/>
	<path fill="none" stroke="#F8DBEB" stroke-width="7.8456" stroke-miterlimit="10" d="M429.592,426.234
		c-2.708-6.867-24.139-38.516-22.852-74.021c0.427-11.774-14.188-9.972-21.949,5.636c-5.342,10.742-0.986,28.285,0.44,32.576
		C390.912,407.516,434.553,438.808,429.592,426.234z"/>
	<path fill="none" stroke="#F8DBEB" stroke-width="7.8456" stroke-miterlimit="10" d="M518.854,426.234
		c2.709-6.867,24.141-38.516,22.852-74.021c-0.428-11.774,14.189-9.972,21.949,5.636c5.342,10.742,0.986,28.285-0.439,32.576
		C557.533,407.516,513.895,438.808,518.854,426.234z"/>
	<path fill="none" stroke="#F8DBEB" stroke-width="5" stroke-linecap="round" stroke-linejoin="round" stroke-miterlimit="10" d="
		M536.464,335.5c-2.964-8.723-5.464-12.722-13.964-19.333c-3.474-2.701,12.123-6.26,23.536,0.24
		C553.153,320.461,561,328.5,561,338.5C553.762,333.031,545.48,331.5,536.464,335.5z"/>
	<path fill="none" stroke="#F8DBEB" stroke-width="5" stroke-linecap="round" stroke-linejoin="round" stroke-miterlimit="10" d="
		M411.134,335.5c2.964-8.723,5.464-12.722,13.964-19.333c3.474-2.701-12.123-6.26-23.536,0.24
		c-7.117,4.054-14.964,12.093-14.964,22.093C393.836,333.031,402.117,331.5,411.134,335.5z"/>
</g>
<g id="lines">
	<path fill="none" stroke="#EE94AB" stroke-width="4" stroke-linecap="round" stroke-linejoin="round" stroke-miterlimit="10" d="
		M505.594,102.295c-6.744,11.023-14.332,5.747-14.332,11.023c0,12.144,0,183.929,0,189.242"/>
	<path fill="none" stroke="#EE94AB" stroke-width="4" stroke-linecap="round" stroke-linejoin="round" stroke-miterlimit="10" d="
		M459.856,139.484c-6.743,11.023-14.333,5.747-14.333,11.023c0,12.143,0,146.739,0,152.053"/>
	
		<path fill="none" stroke="#EE94AB" stroke-width="3.941" stroke-linecap="round" stroke-linejoin="round" stroke-miterlimit="10" d="
		M498.85,173.332c6.744,10.701,14.334,5.579,14.334,10.701c0,11.788,0,114.771,0,119.928"/>
	
		<line fill="none" stroke="#EEABAF" stroke-width="3" stroke-linecap="round" stroke-linejoin="round" stroke-miterlimit="10" x1="462.469" y1="298.505" x2="462.469" y2="165.742"/>
	
		<line fill="none" stroke="#EEABAF" stroke-width="3" stroke-linecap="round" stroke-linejoin="round" stroke-miterlimit="10" x1="480.582" y1="312.167" x2="480.177" y2="124.306"/>
	
		<line fill="none" stroke="#EEABAF" stroke-width="3.3402" stroke-linecap="round" stroke-linejoin="round" stroke-miterlimit="10" x1="497.668" y1="295" x2="497.668" y2="189.622"/>
	
		<line fill="none" stroke="#EEABAF" stroke-width="3" stroke-linecap="round" stroke-linejoin="round" stroke-miterlimit="10" x1="497.332" y1="152.785" x2="497.332" y2="118.631"/>
	
		<line fill="none" stroke="#EEABAF" stroke-width="3" stroke-linecap="round" stroke-linejoin="round" stroke-miterlimit="10" x1="496.91" y1="84.526" x2="496.91" y2="31.797"/>
	<path fill="none" stroke="#EE94AB" stroke-width="4" stroke-linecap="round" stroke-linejoin="round" stroke-miterlimit="10" d="
		M455.726,59.034c6.743,11.023,14.332,5.747,14.332,11.023c0,12.144,0,236.037,0,241.35"/>
</g>
<g id="circles">
	<circle fill="none" stroke="#EE2562" stroke-width="3" stroke-miterlimit="10" cx="528.245" cy="118.631" r="4.52"/>
	<circle fill="none" stroke="#EE2562" stroke-width="3" stroke-miterlimit="10" cx="437.934" cy="86.145" r="4.52"/>
	<circle fill="none" stroke="#EE2562" stroke-width="2.3436" stroke-miterlimit="10" cx="513.183" cy="54.02" r="3.531"/>
	<circle fill="none" stroke="#EE2562" stroke-width="6.1536" stroke-miterlimit="10" cx="469.731" cy="50.489" r="8.791"/>
	<circle fill="none" stroke="#EE2562" stroke-width="4.4442" stroke-miterlimit="10" cx="493.953" cy="97.013" r="6.348"/>
	<circle fill="none" stroke="#EE2562" stroke-width="5.3127" stroke-miterlimit="10" cx="445.524" cy="131.895" r="7.59"/>
	<circle fill="none" stroke="#EE2562" stroke-width="5.3127" stroke-miterlimit="10" cx="513.184" cy="165.742" r="7.59"/>
</g>
</svg>
