<?xml version="1.0" encoding="utf-8"?>
<!-- Generator: Adobe Illustrator 16.0.0, SVG Export Plug-In . SVG Version: 6.00 Build 0)  -->
<!DOCTYPE svg PUBLIC "-//W3C//DTD SVG 1.1//EN" "http://www.w3.org/Graphics/SVG/1.1/DTD/svg11.dtd">
<svg version="1.1" xmlns="http://www.w3.org/2000/svg" xmlns:xlink="http://www.w3.org/1999/xlink" x="0px" y="0px" width="960px"
	 height="560px" viewBox="0 0 960 560" enable-background="new 0 0 960 560" xml:space="preserve">
<g id="center">
	<circle fill="none" stroke="#F71A42" stroke-width="4" stroke-miterlimit="10" cx="495.651" cy="263.349" r="15.016"/>
	<circle fill="none" stroke="#F71A42" stroke-width="4" stroke-miterlimit="10" cx="495.373" cy="263.627" r="33.738"/>
	<circle fill="none" stroke="#E31A42" stroke-width="4" stroke-miterlimit="10" cx="495.415" cy="263.586" r="45.78"/>
	<circle fill="none" stroke="#CF1A42" stroke-width="4" stroke-miterlimit="10" cx="495.842" cy="263.159" r="53.207"/>
	<circle fill="none" stroke="#CF1A42" stroke-width="4" stroke-miterlimit="10" cx="495.547" cy="263.453" r="58.214"/>
</g>
<g id="little_petals">
	<path fill="none" stroke="#311A4D" stroke-width="5" stroke-linecap="round" stroke-linejoin="round" stroke-miterlimit="10" d="
		M469.159,139.329c0,0-19.407-4.362-15.672-24.593c2.085-11.29,4.435-26.497,4.832-31.334 M469.159,139.329
		c0,0,16.985-11.601,5.792-28.862c-6.246-9.633-14.413-22.748-16.632-27.064"/>
	<path fill="none" stroke="#311A4D" stroke-width="5" stroke-linecap="round" stroke-linejoin="round" stroke-miterlimit="10" d="
		M566.429,160.451c0,0-10.639-16.808,6.308-28.472c9.458-6.509,21.872-15.601,25.573-18.74 M566.429,160.451
		c0,0,20.213,3.808,24.504-16.313c2.395-11.228,5.894-26.277,7.377-30.898"/>
	<path fill="none" stroke="#311A4D" stroke-width="5" stroke-linecap="round" stroke-linejoin="round" stroke-miterlimit="10" d="
		M520.749,139.565c0,0-16.895-10.5-6.716-28.377c5.679-9.977,12.898-23.567,14.863-28.005 M520.749,139.565
		c0,0,19.855-5.373,14.958-25.354c-2.731-11.15-6.134-26.222-6.811-31.028"/>
	<path fill="none" stroke="#311A4D" stroke-width="5" stroke-linecap="round" stroke-linejoin="round" stroke-miterlimit="10" d="
		M459.319,444.519c-0.397-4.837-2.747-20.044-4.832-31.334c-3.735-20.23,15.672-24.593,15.672-24.593 M459.319,444.519
		c2.219-4.316,10.386-17.432,16.632-27.064c11.193-17.261-5.792-28.862-5.792-28.862"/>
	<path fill="none" stroke="#311A4D" stroke-width="5" stroke-linecap="round" stroke-linejoin="round" stroke-miterlimit="10" d="
		M598.31,416.682c-3.701-3.14-16.115-12.231-25.573-18.74c-16.946-11.664-6.308-28.472-6.308-28.472 M598.31,416.682
		c-1.483-4.621-4.982-19.67-7.377-30.898c-4.291-20.121-24.504-16.313-24.504-16.313"/>
	<path fill="none" stroke="#311A4D" stroke-width="5" stroke-linecap="round" stroke-linejoin="round" stroke-miterlimit="10" d="
		M527.896,445.738c-1.965-4.438-9.185-18.027-14.863-28.005c-10.179-17.878,6.716-28.378,6.716-28.378 M527.896,445.738
		c0.677-4.807,4.079-19.878,6.811-31.028c4.897-19.981-14.958-25.354-14.958-25.354"/>
	<path fill="none" stroke="#311A4D" stroke-width="5" stroke-linecap="round" stroke-linejoin="round" stroke-miterlimit="10" d="
		M368.562,240.867c0,0-10.426,16.94-28.349,6.84c-10.002-5.638-23.623-12.796-28.069-14.742 M368.562,240.867
		c0,0-5.459-19.832-25.419-14.848c-11.139,2.781-26.195,6.248-30.998,6.945"/>
	<path fill="none" stroke="#311A4D" stroke-width="5" stroke-linecap="round" stroke-linejoin="round" stroke-miterlimit="10" d="
		M421.793,162.082c0,0-19.584,3.484-23.965-16.617c-2.444-11.218-6.159-26.15-7.664-30.764 M421.793,162.082
		c0,0,11.176-17.267-5.823-28.856c-9.486-6.467-22.089-15.403-25.805-18.525"/>
	<path fill="none" stroke="#311A4D" stroke-width="5" stroke-linecap="round" stroke-linejoin="round" stroke-miterlimit="10" d="
		M385.17,195.035c0,0-16.88,10.523-28.427-6.502c-6.445-9.5-15.451-21.978-18.565-25.701 M385.17,195.035
		c0,0,3.945-20.187-16.146-24.615c-11.21-2.472-26.236-6.073-30.847-7.588"/>
	<path fill="none" stroke="#311A4D" stroke-width="5" stroke-linecap="round" stroke-linejoin="round" stroke-miterlimit="10" d="
		M423.391,367.475c0,0,11.969,15.887-3.971,28.89c-8.898,7.257-20.532,17.328-23.965,20.758 M423.391,367.475
		c0,0-20.457-2.149-23.096,18.252c-1.474,11.387-3.737,26.67-4.839,31.396"/>
	<path fill="none" stroke="#311A4D" stroke-width="5" stroke-linecap="round" stroke-linejoin="round" stroke-miterlimit="10" d="
		M368.596,289.527c0,0-4.841,19.293-24.974,15.06c-11.234-2.363-26.379-5.089-31.204-5.605 M368.596,289.527
		c0,0-11.176-17.267-28.709-6.504c-9.785,6.007-23.098,13.846-27.468,15.958"/>
	<path fill="none" stroke="#311A4D" stroke-width="5" stroke-linecap="round" stroke-linejoin="round" stroke-miterlimit="10" d="
		M388.613,333.541c0,0,5.129,19.217-14.529,25.282c-10.97,3.385-25.534,8.351-30.005,10.241 M388.613,333.541
		c0,0-18.152-9.676-28.259,8.241c-5.642,9.999-13.478,23.314-16.275,27.282"/>
	<path fill="none" stroke="#311A4D" stroke-width="5" stroke-linecap="round" stroke-linejoin="round" stroke-miterlimit="10" d="
		M678.627,301.911c-4.852,0.112-20.17,1.562-31.563,2.979c-20.416,2.537-23.628-17.093-23.628-17.093 M678.627,301.911
		c-4.178-2.469-16.789-11.395-26.038-18.197c-16.57-12.19-29.153,4.083-29.153,4.083"/>
	<path fill="none" stroke="#311A4D" stroke-width="5" stroke-linecap="round" stroke-linejoin="round" stroke-miterlimit="10" d="
		M647.347,163.365c-3.057,3.77-11.87,16.383-18.167,25.983c-11.284,17.201-28.324,6.938-28.324,6.938 M647.347,163.365
		c-4.587,1.585-19.554,5.418-30.727,8.062c-20.021,4.737-15.765,24.86-15.765,24.86"/>
	<path fill="none" stroke="#311A4D" stroke-width="5" stroke-linecap="round" stroke-linejoin="round" stroke-miterlimit="10" d="
		M678.939,230.093c-4.394,2.062-17.819,9.583-27.668,15.482c-17.647,10.573-28.521-6.083-28.521-6.083 M678.939,230.093
		c-4.821-0.57-19.964-3.637-31.173-6.12c-20.085-4.452-25.016,15.518-25.016,15.518"/>
	<path fill="none" stroke="#311A4D" stroke-width="5" stroke-linecap="round" stroke-linejoin="round" stroke-miterlimit="10" d="
		M601.039,335.289c0,0,15.617-12.318,28.971,3.328c7.453,8.734,17.78,20.142,21.285,23.497 M601.039,335.289
		c0,0-1.694,20.5,18.761,22.685c11.417,1.222,26.747,3.144,31.495,4.141"/>
</g>
<g id="small_Leaves">
	<path fill="none" stroke="#1194AA" stroke-width="4" stroke-miterlimit="10" d="M498.5,198.5c-5.249-0.113-7.25,0-7.25,0
		c-5.5,2.25-14.229-46.75-8.917-55.917c3.143-5.422,6.009-8.378,8.509-12.378s3.497-38.405,2.658-49.143
		c-0.834-10.667-8.124-13.972-6.164-21.548c2-7.731,11.646-10.077,16.414-2.264c5.299,8.681-4.762,14.705-4.75,24.091
		c0.011,9.344-2.5,41.163,0.5,48.163s5.666,7.332,9.166,13.832s0.5,23.582-2,33.582S502,198.575,498.5,198.5z"/>
	<path fill="none" stroke="#1194AA" stroke-width="4" stroke-miterlimit="10" d="M560.472,266.53c0.113-5.249,0-7.25,0-7.25
		c-2.25-5.5,46.75-14.229,55.916-8.917c5.423,3.143,8.378,6.009,12.378,8.509s38.405,3.497,49.144,2.658
		c10.666-0.834,13.972-8.124,21.548-6.164c7.731,2,10.077,11.646,2.265,16.414c-8.682,5.299-14.705-4.762-24.092-4.75
		c-9.344,0.011-41.162-2.5-48.162,0.5s-7.332,5.666-13.832,9.166s-23.582,0.5-33.582-2S560.396,270.03,560.472,266.53z"/>
	<path fill="none" stroke="#1194AA" stroke-width="4" stroke-miterlimit="10" d="M492.44,328.502c5.249,0.113,7.25,0,7.25,0
		c5.5-2.25,14.229,46.75,8.917,55.916c-3.143,5.424-6.009,8.379-8.509,12.379s-3.497,38.404-2.658,49.143
		c0.834,10.666,8.124,13.973,6.164,21.549c-2,7.73-11.646,10.076-16.414,2.264c-5.299-8.682,4.762-14.705,4.75-24.092
		c-0.011-9.344,2.5-41.162-0.5-48.162s-5.666-7.332-9.166-13.832s-0.5-23.582,2-33.582S488.94,328.428,492.44,328.502z"/>
	<path fill="none" stroke="#1194AA" stroke-width="4" stroke-miterlimit="10" d="M428.468,261.471c-0.113,5.249,0,7.25,0,7.25
		c2.25,5.5-46.75,14.229-55.916,8.917c-5.423-3.143-8.378-6.009-12.378-8.509s-38.405-3.497-49.144-2.658
		c-10.666,0.834-13.972,8.124-21.548,6.164c-7.731-2-10.077-11.646-2.265-16.414c8.682-5.299,14.705,4.762,24.092,4.75
		c9.344-0.011,41.162,2.5,48.162-0.5s7.332-5.666,13.832-9.166s23.582-0.5,33.582,2S428.543,257.971,428.468,261.471z"/>
	<path fill="none" stroke="#1194AA" stroke-width="4" stroke-miterlimit="10" d="M544.995,221.26
		c-3.632-3.792-5.127-5.126-5.127-5.126c-5.48-2.298,22.995-43.119,33.233-45.844c6.057-1.612,10.173-1.675,14.77-2.736
		c4.596-1.061,29.629-24.684,36.629-32.87c6.952-8.132,4.135-15.624,10.878-19.595c6.881-4.053,15.361,1.109,13.208,10.005
		c-2.393,9.886-13.766,7.031-20.395,13.677c-6.6,6.615-30.874,27.338-33.702,34.409c-2.828,7.071-1.178,9.191-3.299,16.262
		c-2.122,7.071-16.322,17.029-25.161,22.332S547.416,223.789,544.995,221.26z"/>
	<path fill="none" stroke="#1194AA" stroke-width="4" stroke-miterlimit="10" d="M539.711,312.025
		c3.791-3.632,5.126-5.127,5.126-5.127c2.298-5.48,43.119,22.995,45.844,33.233c1.612,6.057,1.675,10.173,2.735,14.77
		c1.062,4.596,24.685,29.629,32.871,36.629c8.131,6.952,15.623,4.135,19.595,10.878c4.053,6.881-1.109,15.361-10.005,13.208
		c-9.886-2.393-7.031-13.766-13.677-20.395c-6.614-6.6-27.339-30.874-34.409-33.702c-7.071-2.828-9.191-1.178-16.262-3.299
		c-7.072-2.122-17.029-16.322-22.332-25.161C543.894,324.221,537.182,314.446,539.711,312.025z"/>
	<path fill="none" stroke="#1194AA" stroke-width="4" stroke-miterlimit="10" d="M448.23,217.977
		c-3.791,3.632-5.126,5.127-5.126,5.127c-2.298,5.48-43.119-22.995-45.844-33.233c-1.612-6.057-1.675-10.173-2.735-14.77
		c-1.062-4.596-24.685-29.629-32.871-36.629c-8.131-6.952-15.623-4.135-19.595-10.878c-4.053-6.881,1.109-15.361,10.005-13.208
		c9.886,2.393,7.031,13.766,13.677,20.395c6.614,6.6,27.339,30.874,34.409,33.702c7.071,2.828,9.191,1.178,16.262,3.299
		c7.072,2.122,17.029,16.322,22.332,25.161C444.048,205.781,450.76,215.556,448.23,217.977z"/>
	<path fill="none" stroke="#1194AA" stroke-width="4" stroke-miterlimit="10" d="M445.945,306.741
		c3.632,3.791,5.127,5.126,5.127,5.126c5.48,2.298-22.995,43.119-33.233,45.844c-6.057,1.611-10.173,1.674-14.77,2.734
		c-4.596,1.062-29.629,24.686-36.629,32.871c-6.952,8.131-4.135,15.623-10.878,19.596c-6.881,4.053-15.361-1.109-13.208-10.006
		c2.393-9.885,13.766-7.031,20.395-13.676c6.6-6.615,30.874-27.34,33.702-34.41s1.178-9.191,3.299-16.262
		c2.122-7.072,16.322-17.029,25.161-22.332S443.524,304.212,445.945,306.741z"/>
</g>
<g id="big_leaves">
	<path fill="none" stroke="#1F4E77" stroke-width="5" stroke-miterlimit="10" d="M471.414,203.947
		c-4.893,1.904-6.697,2.774-6.697,2.774c-4.221,4.184-31.037-37.746-29.637-48.247c0.828-6.213,2.345-10.041,3.124-14.693
		c0.778-4.652-20.81-56.762-25.693-66.361c-4.853-9.535-12.853-9.799-13.941-17.549c-1.11-7.908,6.904-13.767,14.298-8.374
		c8.218,5.993,1.229,15.408,4.832,24.076c3.585,8.628,22.785,58.929,28.235,64.247c5.45,5.319,8.041,4.605,13.762,9.271
		s9.486,21.596,11.003,31.791C472.217,191.078,474.677,202.678,471.414,203.947z"/>
	<path fill="none" stroke="#1F4E77" stroke-width="5" stroke-miterlimit="10" d="M524.124,204.266
		c-4.806-2.113-6.697-2.773-6.697-2.773c-5.942-0.026,4.744-48.638,13.159-55.072c4.979-3.808,8.758-5.442,12.599-8.181
		c3.841-2.739,25.423-54.851,28.757-65.092c3.312-10.174-2.159-16.018,2.551-22.268c4.807-6.376,14.617-4.852,16.031,4.189
		c1.573,10.048-10.026,11.764-13.607,20.441c-3.566,8.636-25.558,57.781-25.464,65.395c0.093,7.615,2.429,8.942,3.175,16.287
		s-8.562,21.979-14.699,30.26C533.792,195.733,527.329,205.675,524.124,204.266z"/>
	<path fill="none" stroke="#1F4E77" stroke-width="5" stroke-miterlimit="10" d="M558.024,242.445
		c-1.904-4.893-2.774-6.697-2.774-6.697c-4.184-4.221,37.746-31.037,48.248-29.637c6.213,0.828,10.041,2.345,14.693,3.124
		c4.652,0.778,56.762-20.81,66.361-25.693c9.535-4.853,9.799-12.853,17.549-13.941c7.908-1.11,13.767,6.904,8.373,14.298
		c-5.992,8.218-15.408,1.229-24.076,4.832c-8.628,3.585-58.928,22.785-64.246,28.235c-5.32,5.45-4.605,8.041-9.271,13.762
		s-21.596,9.486-31.791,11.003C570.894,243.248,559.294,245.708,558.024,242.445z"/>
	<path fill="none" stroke="#1F4E77" stroke-width="5" stroke-miterlimit="10" d="M434.234,237.848
		c-2.113,4.807-2.773,6.698-2.773,6.698c-0.026,5.942-48.638-4.744-55.072-13.16c-3.808-4.979-5.442-8.758-8.181-12.599
		c-2.739-3.84-54.852-25.422-65.093-28.756c-10.174-3.311-16.018,2.159-22.268-2.551c-6.376-4.807-4.853-14.617,4.189-16.031
		c10.049-1.573,11.764,10.027,20.441,13.608c8.636,3.566,57.78,25.557,65.395,25.464c7.615-0.092,8.942-2.429,16.287-3.175
		c7.345-0.746,21.979,8.562,30.26,14.699C425.702,228.181,435.644,234.644,434.234,237.848z"/>
	<path fill="none" stroke="#1F4E77" stroke-width="5" stroke-miterlimit="10" d="M466.817,322.738
		c4.806,2.112,6.697,2.773,6.697,2.773c5.942,0.025-4.744,48.637-13.16,55.072c-4.979,3.807-8.758,5.441-12.599,8.181
		c-3.84,2.739-25.422,54.851-28.756,65.092c-3.312,10.174,2.158,16.018-2.552,22.268c-4.807,6.377-14.616,4.853-16.031-4.188
		c-1.573-10.049,10.026-11.765,13.608-20.441c3.565-8.637,25.557-57.781,25.464-65.395c-0.093-7.615-2.43-8.943-3.175-16.287
		c-0.746-7.346,8.562-21.979,14.699-30.26C457.149,331.27,463.612,321.328,466.817,322.738z"/>
	<path fill="none" stroke="#1F4E77" stroke-width="5" stroke-miterlimit="10" d="M555.707,291.155
		c2.112-4.806,2.773-6.697,2.773-6.697c0.026-5.942,48.637,4.744,55.072,13.159c3.808,4.979,5.442,8.758,8.181,12.599
		c2.739,3.841,54.852,25.423,65.093,28.757c10.174,3.312,16.017-2.159,22.267,2.551c6.377,4.807,4.853,14.617-4.188,16.031
		c-10.049,1.573-11.765-10.026-20.441-13.607c-8.636-3.565-57.78-25.558-65.395-25.464c-7.615,0.093-8.943,2.429-16.287,3.175
		c-7.345,0.746-21.979-8.562-30.26-14.699C564.239,300.823,554.297,294.36,555.707,291.155z"/>
	<path fill="none" stroke="#1F4E77" stroke-width="5" stroke-miterlimit="10" d="M517.527,326.057
		c4.893-1.904,6.697-2.775,6.697-2.775c4.221-4.184,31.037,37.746,29.637,48.248c-0.828,6.213-2.345,10.041-3.124,14.693
		c-0.778,4.652,20.81,56.761,25.693,66.36c4.853,9.535,12.853,9.8,13.941,17.55c1.11,7.907-6.904,13.767-14.298,8.373
		c-8.218-5.993-1.229-15.408-4.832-24.076c-3.585-8.628-22.785-58.928-28.235-64.246c-5.45-5.32-8.041-4.605-13.762-9.271
		s-9.486-21.596-11.003-31.791C516.725,338.926,514.265,327.326,517.527,326.057z"/>
	<path fill="none" stroke="#1F4E77" stroke-width="5" stroke-miterlimit="10" d="M430.916,285.559
		c1.904,4.893,2.774,6.697,2.774,6.697c4.184,4.221-37.746,31.037-48.247,29.637c-6.213-0.828-10.041-2.346-14.693-3.125
		c-4.652-0.777-56.762,20.811-66.361,25.693c-9.535,4.854-9.799,12.854-17.549,13.941c-7.908,1.111-13.767-6.904-8.374-14.297
		c5.993-8.219,15.408-1.229,24.076-4.832c8.629-3.586,58.929-22.785,64.247-28.236c5.319-5.449,4.605-8.041,9.271-13.762
		s21.596-9.486,31.791-11.002C418.047,284.756,429.646,282.295,430.916,285.559z"/>
</g>
</svg>
