<?xml version="1.0" encoding="utf-8"?>
<!-- Generator: Adobe Illustrator 16.0.0, SVG Export Plug-In . SVG Version: 6.00 Build 0)  -->
<!DOCTYPE svg PUBLIC "-//W3C//DTD SVG 1.1//EN" "http://www.w3.org/Graphics/SVG/1.1/DTD/svg11.dtd">
<svg version="1.1" xmlns="http://www.w3.org/2000/svg" xmlns:xlink="http://www.w3.org/1999/xlink" x="0px" y="0px" width="960px"
	 height="560px" viewBox="0 0 960 560" enable-background="new 0 0 960 560" xml:space="preserve">
<g id="purple_space">
	
		<polygon fill="none" stroke="#9695EE" stroke-width="3.5608" stroke-linecap="round" stroke-linejoin="round" stroke-miterlimit="10" points="
		421.116,210.833 428.801,212.702 437.799,210.218 434.475,220.533 437.368,231 427.911,225.769 418.806,230 422.116,220.049 	"/>
	
		<polygon fill="none" stroke="#9695EE" stroke-width="3.5608" stroke-linecap="round" stroke-linejoin="round" stroke-miterlimit="10" points="
		499.02,209.758 508.704,211.627 517.702,208.143 514.378,220.458 517.271,231.925 507.813,226.693 498.71,230.925 502.02,219.974 	
		"/>
	
		<polygon fill="none" stroke="#9695EE" stroke-width="3.5608" stroke-linecap="round" stroke-linejoin="round" stroke-miterlimit="10" points="
		459.628,261.442 467.313,263.311 476.312,260.827 473.987,271.142 475.88,281.609 466.423,276.377 457.318,280.609 
		460.628,270.658 	"/>
	
		<polygon fill="none" stroke="#9695EE" stroke-width="3.5608" stroke-linecap="round" stroke-linejoin="round" stroke-miterlimit="10" points="
		438.11,320 426.724,311 438.799,305.807 	"/>
	
		<polygon fill="none" stroke="#9695EE" stroke-width="3.5608" stroke-linecap="round" stroke-linejoin="round" stroke-miterlimit="10" points="
		493,320 493,308.5 503.027,313.154 	"/>
	
		<polygon fill="none" stroke="#9695EE" stroke-width="3" stroke-linecap="round" stroke-linejoin="round" stroke-miterlimit="10" points="
		454.25,345.688 448.25,351 448.25,341.606 	"/>
	<path fill="none" stroke="#9695EE" stroke-width="3" stroke-linecap="round" stroke-linejoin="round" stroke-miterlimit="10" d="
		M471.627,345.688c0.123,0.062,6.641-7.688,6.641-7.688L480,351L471.627,345.688z"/>
	
		<polygon fill="none" stroke="#9695EE" stroke-width="3" stroke-linecap="round" stroke-linejoin="round" stroke-miterlimit="10" points="
		432.417,382.519 429,376.076 439.11,365.25 440.5,379 	"/>
	
		<polygon fill="none" stroke="#9695EE" stroke-width="3" stroke-linecap="round" stroke-linejoin="round" stroke-miterlimit="10" points="
		495.403,386.519 485.824,382.519 485.824,366.75 497.184,378.5 	"/>
	
		<polygon fill="none" stroke="#9695EE" stroke-width="3.5608" stroke-linecap="round" stroke-linejoin="round" stroke-miterlimit="10" points="
		461.287,183.25 468.466,179.5 477.75,183.25 476.312,170.861 463,170.861 	"/>
	
		<polygon fill="none" stroke="#9695EE" stroke-width="3" stroke-linecap="round" stroke-linejoin="round" stroke-miterlimit="10" points="
		450.25,401.835 462.17,404.835 474.005,401.835 470.439,409.146 453.5,409.146 	"/>
</g>
<g id="petals">
	<path fill="none" stroke="#CAAEF3" stroke-width="4" stroke-linecap="round" stroke-linejoin="round" stroke-miterlimit="10" d="
		M487.726,426.099c-7.703,0-9.396-7.662-9.454-11.029c-0.141-8.053,4.084-17.68,5.078-20.658c0.699-2.102,2.1-4.217,4.376-4.217
		 M487.726,426.099c7.703,0,9.396-7.662,9.454-11.029c0.141-8.053-4.084-17.68-5.076-20.658c-0.701-2.102-2.102-4.217-4.378-4.217"
		/>
	<path fill="none" stroke="#8C9AC9" stroke-width="4" stroke-linecap="round" stroke-linejoin="round" stroke-miterlimit="10" d="
		M462.169,451.418c-7.703,0-9.395-7.662-9.454-11.029c-0.142-8.053,4.083-17.68,5.078-20.658c0.7-2.102,2.1-4.217,4.376-4.217
		 M462.169,451.418c7.703,0,9.396-7.662,9.455-11.029c0.141-8.053-4.084-17.68-5.077-20.658c-0.701-2.102-2.102-4.217-4.378-4.217"
		/>
	<path fill="none" stroke="#CAAEF3" stroke-width="4" stroke-linecap="round" stroke-linejoin="round" stroke-miterlimit="10" d="
		M440.183,434.652c-4.199,3.307-14.175,8.855-21.263,9.389c-7.087,0.533-10.573,10.471-4.43,12.814s13.354,2.209,18.605-2.83
		c4.433-4.256,9.213-9.707,10.395-14.422C444.672,434.889,443.384,432.131,440.183,434.652z"/>
	<path fill="none" stroke="#BCBFEC" stroke-width="4" stroke-linecap="round" stroke-linejoin="round" stroke-miterlimit="10" d="
		M405.682,302.418c-4.199,3.309-14.175,8.855-21.263,9.389c-7.087,0.533-10.573,10.471-4.429,12.816
		c6.143,2.344,13.354,2.209,18.605-2.832c4.433-4.254,9.213-9.705,10.395-14.422C410.171,302.654,408.883,299.896,405.682,302.418z"
		/>
	<path fill="none" stroke="#9FB5E7" stroke-width="4" stroke-linecap="round" stroke-linejoin="round" stroke-miterlimit="10" d="
		M505.767,387.474c4.199,3.309,14.176,8.855,21.264,9.389c7.086,0.533,10.572,10.473,4.43,12.816
		c-6.145,2.344-13.355,2.209-18.605-2.832c-4.434-4.254-9.214-9.705-10.396-14.422C501.278,387.71,502.565,384.952,505.767,387.474z
		"/>
	<path fill="none" stroke="#BCBFEC" stroke-width="4" stroke-linecap="round" stroke-linejoin="round" stroke-miterlimit="10" d="
		M484.619,434.652c4.199,3.307,14.176,8.855,21.264,9.389s10.572,10.471,4.43,12.814s-13.354,2.209-18.605-2.83
		c-4.434-4.256-9.213-9.707-10.395-14.422S481.419,432.131,484.619,434.652z"/>
	<path fill="none" stroke="#8C9AC9" stroke-width="4" stroke-linecap="round" stroke-linejoin="round" stroke-miterlimit="10" d="
		M528.483,305.418c4.199,3.307,14.176,8.855,21.264,9.389c7.086,0.533,10.572,10.471,4.43,12.816
		c-6.145,2.344-13.355,2.209-18.605-2.832c-4.434-4.256-9.213-9.705-10.396-14.422C523.995,305.654,525.282,302.896,528.483,305.418
		z"/>
	<path fill="none" stroke="#9FB5E7" stroke-width="4" stroke-linecap="round" stroke-linejoin="round" stroke-miterlimit="10" d="
		M462.547,494.484c-7.703,0-9.395-7.664-9.454-11.031c-0.142-8.053,4.083-17.68,5.078-20.658c0.7-2.102,2.1-4.217,4.376-4.217
		 M462.547,494.484c7.703,0,9.396-7.664,9.455-11.031c0.141-8.053-4.084-17.68-5.077-20.658c-0.701-2.102-2.102-4.217-4.378-4.217"
		/>
	<path fill="none" stroke="#BCBFEC" stroke-width="4" stroke-linecap="round" stroke-linejoin="round" stroke-miterlimit="10" d="
		M436.368,426.099c-7.703,0-9.395-7.662-9.454-11.029c-0.142-8.053,4.083-17.68,5.078-20.658c0.7-2.102,2.1-4.217,4.376-4.217
		 M436.368,426.099c7.703,0,9.396-7.662,9.455-11.029c0.141-8.053-4.084-17.68-5.077-20.658c-0.701-2.102-2.102-4.217-4.378-4.217"
		/>
	<path fill="none" stroke="#9FB5E7" stroke-width="4" stroke-linecap="round" stroke-linejoin="round" stroke-miterlimit="10" d="
		M421.985,383.474c-4.199,3.309-14.175,8.855-21.263,9.389c-7.087,0.533-10.573,10.473-4.43,12.816s13.354,2.209,18.605-2.832
		c4.433-4.254,9.213-9.705,10.395-14.422C426.474,383.71,425.186,380.952,421.985,383.474z"/>
</g>
<g id="purple_bit">
	<path fill="none" stroke="#97A7F3" stroke-width="3" stroke-linecap="round" stroke-linejoin="round" stroke-miterlimit="10" d="
		M442.435,165.809c0,6.116-5.291,11.073-11.816,11.073c-6.522,0-11.813-4.958-11.813-11.073c0-6.115,5.291-19.976,11.813-19.976
		C437.144,145.833,442.435,159.694,442.435,165.809z"/>
	<path fill="none" stroke="#97A7F3" stroke-width="3" stroke-linecap="round" stroke-linejoin="round" stroke-miterlimit="10" d="
		M520.021,164.023c0,6.116-5.291,11.073-11.816,11.073c-6.521,0-11.812-4.958-11.812-11.073c0-6.115,5.291-19.976,11.812-19.976
		C514.729,144.047,520.021,157.909,520.021,164.023z"/>
	<path fill="none" stroke="#97A7F3" stroke-width="3" stroke-linecap="round" stroke-linejoin="round" stroke-miterlimit="10" d="
		M559.747,215.284c0,6.116-5.291,11.073-11.816,11.073c-6.521,0-11.812-4.958-11.812-11.073c0-6.115,5.291-19.976,11.812-19.976
		C554.456,195.308,559.747,209.169,559.747,215.284z"/>
	<path fill="none" stroke="#97A7F3" stroke-width="3" stroke-linecap="round" stroke-linejoin="round" stroke-miterlimit="10" d="
		M480.28,215.284c0,6.116-5.291,11.073-11.816,11.073c-6.521,0-11.812-4.958-11.812-11.073c0-6.115,5.291-19.976,11.812-19.976
		C474.989,195.308,480.28,209.169,480.28,215.284z"/>
	<path fill="none" stroke="#97A7F3" stroke-width="3" stroke-linecap="round" stroke-linejoin="round" stroke-miterlimit="10" d="
		M400.446,212.284c0,6.116-5.291,11.073-11.816,11.073c-6.521,0-11.812-4.958-11.812-11.073c0-6.115,5.291-19.976,11.812-19.976
		C395.155,192.308,400.446,206.169,400.446,212.284z"/>
	<path fill="none" stroke="#97A7F3" stroke-width="3" stroke-linecap="round" stroke-linejoin="round" stroke-miterlimit="10" d="
		M439.11,263.697c0,6.116-5.291,11.073-11.816,11.073c-6.521,0-11.812-4.958-11.812-11.073c0-6.115,5.291-19.976,11.812-19.976
		C433.819,243.721,439.11,257.582,439.11,263.697z"/>
	<path fill="none" stroke="#97A7F3" stroke-width="3" stroke-linecap="round" stroke-linejoin="round" stroke-miterlimit="10" d="
		M519.032,265.356c0,6.116-5.291,11.073-11.816,11.073c-6.521,0-11.812-4.958-11.812-11.073c0-6.115,5.291-19.976,11.812-19.976
		C513.741,245.38,519.032,259.241,519.032,265.356z"/>
</g>
<g id="yellow_bit">
	<path fill="none" stroke="#FFDE00" stroke-width="3" stroke-linecap="round" stroke-linejoin="round" stroke-miterlimit="10" d="
		M395.812,213.104c0,3.965-3.215,7.18-7.18,7.18c-3.966,0-7.181-3.215-7.181-7.18s3.215-12.953,7.181-12.953
		C392.597,200.152,395.812,209.14,395.812,213.104z"/>
	<path fill="none" stroke="#FFDE00" stroke-width="3" stroke-linecap="round" stroke-linejoin="round" stroke-miterlimit="10" d="
		M434.475,264.791c0,3.965-3.215,7.18-7.18,7.18s-7.179-3.215-7.179-7.18c0-3.965,3.213-12.952,7.179-12.952
		S434.475,260.825,434.475,264.791z"/>
	<path fill="none" stroke="#FFDE00" stroke-width="3" stroke-linecap="round" stroke-linejoin="round" stroke-miterlimit="10" d="
		M475.646,216.589c0,3.965-3.215,7.18-7.18,7.18c-3.964,0-7.179-3.215-7.179-7.18s3.215-12.953,7.179-12.953
		C472.431,203.636,475.646,212.624,475.646,216.589z"/>
	<path fill="none" stroke="#FFDE00" stroke-width="3" stroke-linecap="round" stroke-linejoin="round" stroke-miterlimit="10" d="
		M437.799,166.917c0,3.965-3.215,7.18-7.18,7.18c-3.963,0-7.178-3.214-7.178-7.18c0-3.965,3.215-12.953,7.178-12.953
		C434.584,153.964,437.799,162.952,437.799,166.917z"/>
	<path fill="none" stroke="#FFDE00" stroke-width="3" stroke-linecap="round" stroke-linejoin="round" stroke-miterlimit="10" d="
		M515.27,165.136c0,3.965-3.215,7.179-7.181,7.179s-7.179-3.214-7.179-7.179c0-3.965,3.213-12.953,7.179-12.953
		S515.27,161.171,515.27,165.136z"/>
	<path fill="none" stroke="#FFDE00" stroke-width="3" stroke-linecap="round" stroke-linejoin="round" stroke-miterlimit="10" d="
		M514.385,266.935c0,3.964-3.214,7.179-7.18,7.179c-3.965,0-7.178-3.215-7.178-7.179c0-3.966,3.213-12.953,7.178-12.953
		C511.171,253.982,514.385,262.969,514.385,266.935z"/>
	<path fill="none" stroke="#FFDE00" stroke-width="2.5" stroke-linecap="round" stroke-linejoin="round" stroke-miterlimit="10" d="
		M468.439,371.021c0,2.791-2.263,5.055-5.056,5.055s-5.055-2.264-5.055-5.055c0-2.793,2.262-9.123,5.055-9.123
		S468.439,368.229,468.439,371.021z"/>
	<path fill="none" stroke="#FFDE00" stroke-width="2.5" stroke-linecap="round" stroke-linejoin="round" stroke-miterlimit="10" d="
		M427.801,342.262c0,3.268-2.649,5.918-5.918,5.918c-3.269,0-5.918-2.65-5.918-5.918c0-3.27,2.649-10.678,5.918-10.678
		C425.152,331.584,427.801,338.992,427.801,342.262z"/>
	<path fill="none" stroke="#FFDE00" stroke-width="2.5" stroke-linecap="round" stroke-linejoin="round" stroke-miterlimit="10" d="
		M513.123,343.986c0,3.268-2.649,5.918-5.918,5.918c-3.27,0-5.918-2.65-5.918-5.918c0-3.27,2.648-10.678,5.918-10.678
		C510.474,333.309,513.123,340.717,513.123,343.986z"/>
	<path fill="none" stroke="#FFDE00" stroke-width="2.5" stroke-linecap="round" stroke-linejoin="round" stroke-miterlimit="10" d="
		M471.733,309.727c0,3.268-2.65,5.918-5.918,5.918c-3.269,0-5.918-2.65-5.918-5.918c0-3.27,2.649-10.676,5.918-10.676
		C469.083,299.051,471.733,306.457,471.733,309.727z"/>
	<path fill="none" stroke="#FFDE00" stroke-width="3" stroke-linecap="round" stroke-linejoin="round" stroke-miterlimit="10" d="
		M555.404,216.105c0,3.964-3.215,7.179-7.18,7.179s-7.178-3.215-7.178-7.179c0-3.966,3.213-12.953,7.178-12.953
		S555.404,212.139,555.404,216.105z"/>
</g>
<g id="flowers">
	<path fill="none" stroke="#CAAEF3" stroke-width="4" stroke-linecap="round" stroke-linejoin="round" stroke-miterlimit="10" d="
		M388.652,181.694c6.44,4.058,10.3,5.552,15.405,10.375c14.64,13.834,12.543,38.679,2.537,42.367
		c-12.81,4.72-3.893-9.078-15.565-8.646c0,0,2.283,4.268,4.542,11.889c2.207,7.446-1.082,14.159-8.864,14.159 M388.652,181.694
		c-6.438,4.058-10.3,5.552-15.404,10.375c-14.64,13.834-12.652,38.994-2.535,42.367c7.779,2.594,4.321-11.024,12.966-8.863
		c0,0-3.198,6.855-4.97,13.187c-1.514,5.404-0.216,13.077,7.997,13.077"/>
	<path fill="none" stroke="#8C9AC9" stroke-width="4" stroke-linecap="round" stroke-linejoin="round" stroke-miterlimit="10" d="
		M427.315,233.663c6.44,4.057,10.3,5.551,15.406,10.375c14.64,13.833,12.542,38.68,2.535,42.366
		c-12.809,4.721-3.891-9.077-15.565-8.645c0,0,2.283,4.266,4.542,11.889c2.207,7.447-1.082,14.158-8.864,14.158 M427.315,233.663
		c-6.438,4.057-10.3,5.551-15.404,10.375c-14.64,13.833-12.652,38.993-2.535,42.368c7.779,2.594,4.321-11.024,12.966-8.863
		c0,0-3.197,6.855-4.97,13.186c-1.513,5.404-0.216,13.078,7.997,13.078"/>
	<path fill="none" stroke="#9FB5E7" stroke-width="4" stroke-linecap="round" stroke-linejoin="round" stroke-miterlimit="10" d="
		M468.486,185.461c6.44,4.057,10.302,5.552,15.407,10.375c14.64,13.834,12.541,38.679,2.535,42.367
		c-12.81,4.719-3.892-9.079-15.565-8.647c0,0,2.283,4.268,4.542,11.891c2.207,7.446-1.082,14.158-8.865,14.158 M468.486,185.461
		c-6.438,4.057-10.3,5.552-15.404,10.375c-14.64,13.834-12.652,38.994-2.535,42.367c7.779,2.594,4.321-11.024,12.966-8.863
		c0,0-3.196,6.855-4.97,13.187c-1.511,5.404-0.215,13.078,7.997,13.078"/>
	<path fill="none" stroke="#BCBFEC" stroke-width="4" stroke-linecap="round" stroke-linejoin="round" stroke-miterlimit="10" d="
		M430.642,135.79c6.438,4.058,10.3,5.552,15.405,10.376c14.64,13.833,12.542,38.679,2.535,42.367
		c-12.808,4.719-3.891-9.079-15.563-8.647c0,0,2.281,4.268,4.54,11.89c2.207,7.446-1.082,14.158-8.863,14.158 M430.642,135.79
		c-6.44,4.058-10.3,5.552-15.404,10.376c-14.64,13.833-12.654,38.993-2.537,42.367c7.781,2.594,4.321-11.024,12.968-8.863
		c0,0-3.198,6.855-4.97,13.187c-1.513,5.404-0.216,13.078,7.997,13.078"/>
	<path fill="none" stroke="#CAAEF3" stroke-width="4" stroke-linecap="round" stroke-linejoin="round" stroke-miterlimit="10" d="
		M508.109,134.008c6.439,4.058,10.301,5.552,15.406,10.375c14.641,13.833,12.541,38.68,2.535,42.367
		c-12.809,4.72-3.891-9.078-15.564-8.646c0,0,2.282,4.267,4.541,11.89c2.207,7.446-1.082,14.157-8.864,14.157 M508.109,134.008
		c-6.438,4.058-10.3,5.552-15.404,10.375c-14.64,13.833-12.652,38.994-2.535,42.368c7.779,2.593,4.321-11.024,12.967-8.863
		c0,0-3.197,6.855-4.971,13.186c-1.513,5.403-0.215,13.077,7.997,13.077"/>
	<path fill="none" stroke="#CAAEF3" stroke-width="4" stroke-linecap="round" stroke-linejoin="round" stroke-miterlimit="10" d="
		M507.227,235.807c6.439,4.057,10.299,5.552,15.406,10.375c14.639,13.833,12.541,38.679,2.535,42.366
		c-12.811,4.721-3.893-9.078-15.566-8.645c0,0,2.283,4.266,4.543,11.889c2.207,7.445-1.082,14.158-8.865,14.158 M507.227,235.807
		c-6.439,4.057-10.301,5.552-15.404,10.375c-14.641,13.833-12.653,38.993-2.535,42.368c7.779,2.592,4.32-11.025,12.966-8.864
		c0,0-3.198,6.856-4.97,13.186c-1.514,5.404-0.216,13.078,7.996,13.078"/>
	<path fill="none" stroke="#BCBFEC" stroke-width="4" stroke-linecap="round" stroke-linejoin="round" stroke-miterlimit="10" d="
		M548.246,184.977c6.439,4.057,10.299,5.552,15.406,10.375c14.639,13.833,12.541,38.68,2.535,42.366
		c-12.811,4.721-3.893-9.078-15.566-8.645c0,0,2.283,4.267,4.543,11.889c2.207,7.446-1.082,14.158-8.865,14.158 M548.246,184.977
		c-6.439,4.057-10.301,5.552-15.404,10.375c-14.641,13.833-12.652,38.994-2.535,42.367c7.779,2.594,4.32-11.024,12.965-8.863
		c0,0-3.197,6.856-4.969,13.187c-1.514,5.404-0.215,13.078,7.996,13.078"/>
	
		<path fill="none" stroke="#BCBFEC" stroke-width="3.2424" stroke-linecap="round" stroke-linejoin="round" stroke-miterlimit="10" d="
		M465.831,284.244c5.309,3.344,8.491,4.576,12.7,8.553c12.069,11.402,10.338,31.885,2.09,34.924
		c-10.56,3.891-3.208-7.484-12.831-7.127c0,0,1.882,3.516,3.744,9.799c1.819,6.139-0.892,11.672-7.307,11.672 M465.831,284.244
		c-5.307,3.344-8.49,4.576-12.698,8.553c-12.068,11.402-10.43,32.143-2.09,34.924c6.413,2.137,3.562-9.088,10.688-7.305
		c0,0-2.636,5.65-4.097,10.867c-1.248,4.455-0.178,10.781,6.592,10.781"/>
	
		<path fill="none" stroke="#8C9AC9" stroke-width="3.2424" stroke-linecap="round" stroke-linejoin="round" stroke-miterlimit="10" d="
		M507.222,318.502c5.31,3.346,8.491,4.576,12.7,8.553c12.068,11.404,10.338,31.885,2.09,34.924
		c-10.56,3.891-3.209-7.484-12.83-7.127c0,0,1.881,3.518,3.743,9.801c1.819,6.139-0.892,11.67-7.308,11.67 M507.222,318.502
		c-5.308,3.346-8.489,4.576-12.698,8.553c-12.068,11.404-10.43,32.143-2.09,34.924c6.413,2.139,3.562-9.088,10.689-7.305
		c0,0-2.637,5.65-4.098,10.869c-1.247,4.453-0.178,10.779,6.592,10.779"/>
	
		<path fill="none" stroke="#CAAEF3" stroke-width="3.2424" stroke-linecap="round" stroke-linejoin="round" stroke-miterlimit="10" d="
		M421.9,316.777c5.309,3.346,8.491,4.576,12.7,8.553c12.068,11.404,10.338,31.885,2.089,34.922
		c-10.559,3.893-3.208-7.48-12.83-7.125c0,0,1.881,3.518,3.744,9.801c1.819,6.139-0.892,11.672-7.307,11.672 M421.9,316.777
		c-5.307,3.346-8.49,4.576-12.698,8.553c-12.068,11.404-10.43,32.143-2.089,34.924c6.412,2.139,3.562-9.086,10.688-7.305
		c0,0-2.636,5.65-4.096,10.869c-1.248,4.455-0.178,10.781,6.592,10.781"/>
	
		<path fill="none" stroke="#9FB5E7" stroke-width="3.2424" stroke-linecap="round" stroke-linejoin="round" stroke-miterlimit="10" d="
		M463.398,349.395c4.535,2.857,7.254,3.91,10.849,7.307c10.311,9.742,8.833,27.24,1.785,29.836c-9.021,3.324-2.74-6.393-10.96-6.088
		c0,0,1.607,3.006,3.199,8.373c1.553,5.244-0.763,9.971-6.243,9.971 M463.398,349.395c-4.535,2.857-7.253,3.91-10.848,7.307
		c-10.311,9.742-8.911,27.461-1.785,29.838c5.478,1.826,3.042-7.764,9.13-6.242c0,0-2.251,4.828-3.5,9.287
		c-1.065,3.805-0.151,9.209,5.632,9.209"/>
</g>
</svg>
